<?xml version="1.0" encoding="UTF-8"?>
<svg width="64px" height="64px" viewBox="0 0 64 64" version="1.1" xmlns="http://www.w3.org/2000/svg" xmlns:xlink="http://www.w3.org/1999/xlink">
    <!-- Generator: Sketch 58 (84663) - https://sketch.com -->
    <title>icon_64x64/google_ads/default</title>
    <desc>Created with Sketch.</desc>
    <g id="icon_64x64/google_ads/default" stroke="none" stroke-width="1" fill="none" fill-rule="evenodd">
        <rect id="Rectangle-4" x="0" y="0" width="64" height="64"></rect>
        <g id="Group" transform="translate(9.999972, 12.000000)" stroke="#B7BFDD" stroke-linecap="round" stroke-linejoin="round" stroke-width="2">
            <path d="M14.7913935,5.00064583 C15.2115435,3.89784583 15.7891935,2.88249583 16.6468935,2.05989583 C20.0779935,-1.28360417 25.7496435,-0.443454166 28.0776435,3.75774583 C29.8281435,6.94374583 31.6837935,10.0595458 33.4867935,13.2104458 C36.4975935,18.4443958 39.5436435,23.6784958 42.5194935,28.9299958 C45.0225435,33.3237958 42.3093435,38.8728958 37.3378935,39.6255958 C34.2919935,40.0808458 31.4386935,38.6802958 29.8632435,35.9495458 C27.2199435,31.3457458 24.5592435,26.7417958 21.9159435,22.1555458 C21.8634435,22.0505458 21.7933935,21.9630958 21.7233435,21.8754958 C21.4432935,21.6479458 21.3207435,21.3153958 21.1456935,21.0177958 C19.9728435,18.9521458 18.7650435,16.9040458 17.5921935,14.8559458 C16.8394935,13.5255958 16.0516935,12.2127958 15.2989935,10.8822958 C14.6163435,9.69189583 14.3011935,8.39664583 14.3362935,7.03119583 C14.3887935,6.33099583 14.4762435,5.63079583 14.7913935,5.00064583" id="Fill-1"></path>
            <path d="M14.7913935,5.00064583 C14.6338935,5.63079583 14.4937935,6.26094583 14.4588435,6.92619583 C14.4063435,8.39664583 14.7738435,9.76194583 15.5091435,11.0399458 C17.4346935,14.3483458 19.3602435,17.6742958 21.2682435,21.0002458 C21.4432935,21.2978458 21.5833935,21.5954458 21.7584435,21.8754958 C20.7081435,23.6960458 19.6578435,25.4990458 18.5899935,27.3194458 C17.1195435,29.8577458 15.6490935,32.4134458 14.1612435,34.9517458 C14.0911935,34.9517458 14.0736435,34.9167958 14.0562435,34.8641458 C14.0386935,34.7241958 14.0911935,34.6016458 14.1261435,34.4616958 C14.8438935,31.8359458 14.2486935,29.5076458 12.4456935,27.5121958 C11.3428935,26.3042458 9.9424935,25.6215958 8.3319435,25.3940458 C6.2314935,25.0964458 4.3758435,25.6389958 2.7129435,26.9519458 C2.4153435,27.1794958 2.2227435,27.5121958 1.8726435,27.6872458 C1.8027435,27.6872458 1.7676435,27.6521458 1.7502435,27.5996458 C2.5903935,26.1467458 3.4131435,24.6938458 4.2534435,23.2409458 C7.7193435,17.2191958 11.1853935,11.1974458 14.6688435,5.19324583 C14.7039435,5.12319583 14.7564435,5.07069583 14.7913935,5.00064583" id="Fill-4"></path>
            <path d="M1.8201885,27.6521758 C2.1527385,27.3545758 2.4678885,27.0394258 2.8179885,26.7593758 C7.0716885,23.3984758 13.4609385,25.8316258 14.3888385,31.1531758 C14.6163885,32.4310258 14.4938385,33.6563758 14.1086385,34.8817258 C14.0912385,34.9867258 14.0736885,35.0741758 14.0387385,35.1793258 C13.8810885,35.4593758 13.7411385,35.7569758 13.5660885,36.0370258 C12.0080385,38.6102758 9.7148385,39.8881258 6.7040385,39.6956758 C3.2555385,39.4504258 0.542188496,36.8597758 0.0696884958,33.4288258 C-0.158011504,31.7659258 0.174688496,30.2078758 1.0323885,28.7725258 C1.2074385,28.4573758 1.4174385,28.1773258 1.6101885,27.8621758 C1.6976385,27.7922758 1.6626885,27.6521758 1.8201885,27.6521758" id="Fill-6"></path>
        </g>
    </g>
</svg>