<svg xmlns="http://www.w3.org/2000/svg" viewBox="0 0 512 512"><defs><style>.cls-1,.cls-3{fill:none;}.cls-2{fill:#00B0C2;}.cls-3{stroke:#00B0C2;stroke-linecap:round;stroke-linejoin:round;stroke-width:7px;}</style></defs><g id="Layer_2" data-name="Layer 2"><g id="Layer_2-2" data-name="Layer 2"><rect class="cls-1" width="512" height="512"/><polygon class="cls-2" points="270.63 290 281.8 290 294.5 290 294.5 244.93 270.63 231.14 248.19 218.2 247.03 217.53 195.99 188.07 97.5 244.93 97.5 358.68 121.37 372.44 144.8 385.97 195.99 415.54 294.5 358.68 294.5 313.6 270.63 313.6 247.03 313.6 247.03 331.28 195.99 360.72 144.97 331.28 144.97 272.35 195.99 242.88 247.03 272.35 247.03 290 270.63 290"/><rect class="cls-3" x="65.5" y="65.5" width="380.5" height="380.5" rx="50.32" transform="translate(0 511.5) rotate(-90)"/></g></g></svg>