<svg width="44" height="49" viewBox="0 0 44 49" fill="none" xmlns="http://www.w3.org/2000/svg">
<path fill-rule="evenodd" clip-rule="evenodd" d="M38.7948 9.07157H31.0902V7.31705H38.7948C40.2951 7.31705 41.4902 6.09652 41.4902 4.6217C41.4902 3.14689 40.2696 1.92636 38.7948 1.92636H5.20471C3.70447 1.92636 2.50936 3.14689 2.50936 4.6217C2.50936 6.09652 3.70447 7.31705 5.20471 7.31705H13.0365V9.04614H5.20471C2.76364 9.07157 0.780273 7.06277 0.780273 4.6217C0.780273 2.18063 2.76364 0.197266 5.20471 0.197266H38.7948C41.2359 0.197266 43.2193 2.18063 43.2193 4.6217C43.2193 7.0882 41.2359 9.07157 38.7948 9.07157Z" fill="#FFFFFF"/>
<path d="M22.8394 30.6274H21.1357V32.3311H22.8394V30.6274Z" fill="#FFFFFF"/>
<path d="M22.8394 26.3809H21.1357V28.0845H22.8394V26.3809Z" fill="#FFFFFF"/>
<path d="M22.8404 22.1089H21.1367V23.8125H22.8404V22.1089Z" fill="#FFFFFF"/>
<path d="M28.476 15.854V37.1625H15.5078V15.854H28.476ZM26.7723 35.4588V17.5831H17.2115V35.4588H26.7723Z" fill="#FFFFFF"/>
<path d="M27.1691 4.01807H25.6943V5.72173H27.1691V4.01807Z" fill="#FFFFFF"/>
<path d="M18.2697 4.01807H16.7949V5.72173H18.2697V4.01807Z" fill="#FFFFFF"/>
<path fill-rule="evenodd" clip-rule="evenodd" d="M35.3316 9.05326H34.467C32.1785 9.05326 30.2969 7.1716 30.2969 4.8831V4.01855H29.4069H28.6187V5.72222C29.0001 8.29043 31.0343 10.3247 33.6279 10.7061V26.4967V42.2874C31.0343 42.6434 28.9746 44.6776 28.6187 47.2712H15.3199C14.9385 44.703 12.9043 42.6688 10.3106 42.2874V10.7315C12.9043 10.3755 14.9639 8.34128 15.3199 5.74765V4.04398H14.5316H13.6417V4.90853C13.6417 7.22246 11.7854 9.07869 9.42066 9.07869H8.58154L8.65783 43.9656H9.52237C11.8109 43.9656 13.6925 45.8473 13.6925 48.1358V49.0003H14.5825H29.4832H30.3477V48.1358C30.3477 45.8219 32.204 43.9656 34.5688 43.9656H35.4333V26.5222L35.3316 9.05326Z" fill="#FFFFFF"/>
<path d="M24.2194 4.01807H22.7446V5.72173H24.2194V4.01807Z" fill="#FFFFFF"/>
<path d="M21.2453 4.01807H19.7705V5.72173H21.2453V4.01807Z" fill="#FFFFFF"/>
</svg>
