<svg id="Layer_1" data-name="Layer 1" xmlns="http://www.w3.org/2000/svg" xmlns:xlink="http://www.w3.org/1999/xlink" viewBox="0 0 316.08 365"><defs><style>.cls-1{fill:url(#linear-gradient);}.cls-2{fill:url(#linear-gradient-2);}.cls-3{fill:url(#linear-gradient-3);}.cls-4{fill:url(#linear-gradient-4);}</style><linearGradient id="linear-gradient" x1="70.69" y1="293.48" x2="274.17" y2="102.63" gradientUnits="userSpaceOnUse"><stop offset="0" stop-color="#00b0c2"/><stop offset="1" stop-color="#69d757"/></linearGradient><linearGradient id="linear-gradient-2" x1="88.19" y1="312.14" x2="291.67" y2="121.29" xlink:href="#linear-gradient"/><linearGradient id="linear-gradient-3" x1="240.8" y1="38.55" x2="-8.15" y2="255.64" xlink:href="#linear-gradient"/><linearGradient id="linear-gradient-4" x1="313.38" y1="121.79" x2="64.43" y2="338.88" xlink:href="#linear-gradient"/></defs><title>Main C</title><polygon class="cls-1" points="277.8 201.44 277.8 251.67 158.04 320.79 76.17 273.5 76.17 273.13 76.17 229.79 76.17 135.26 158.04 87.97 239.92 135.26 239.92 91.89 239.92 91.47 158.04 44.21 38.32 113.39 38.32 251.67 38.32 295.85 75.87 317.56 158.04 365 316.08 273.77 316.08 201.44 277.8 201.44"/><polygon class="cls-2" points="295.72 163.56 316.08 163.56 316.08 91.26 277.8 69.13 277.8 113.39 277.8 163.56 295.72 163.56"/><polygon class="cls-3" points="239.92 91.47 239.92 91.89 239.92 135.26 239.92 163.56 277.8 163.56 277.8 113.39 277.8 69.13 241.79 48.35 239.92 47.28 158.04 0 0 91.26 0 273.77 38.32 295.85 38.32 251.67 38.32 113.39 158.04 44.21 239.92 91.47"/><polygon class="cls-4" points="239.92 201.44 239.92 229.79 158.04 277.04 76.17 229.79 76.17 273.13 76.17 273.5 158.04 320.79 277.8 251.67 277.8 201.44 239.92 201.44"/></svg>