<?xml version="1.0" encoding="utf-8"?>
<!-- Generator: Adobe Illustrator 21.0.0, SVG Export Plug-In . SVG Version: 6.00 Build 0)  -->
<svg version="1.1" id="Capa_1" xmlns="http://www.w3.org/2000/svg" xmlns:xlink="http://www.w3.org/1999/xlink" x="0px" y="0px"
	 viewBox="0 0 512 512" style="enable-background:new 0 0 512 512;" xml:space="preserve">
<style type="text/css">
	.st0{fill:#FFFFFF;}
	.st1{fill:none;stroke:#FFFFFF;stroke-width:5;stroke-miterlimit:10;}
</style>
<g>
	<g>
		<g>
			<path class="st0" d="M327.1,285.1c0,39.5-32,71.6-71.6,71.6s-71.6-32-71.6-71.6s32-71.6,71.6-71.6c12.2,0,23.8,3,34.3,8.8
				l-27.9,34.2h110.4l-27.6-100.8l-27.3,33.1c-18.5-11.9-39.8-18.2-61.8-18.2c-30.6,0-59.4,11.9-81.1,33.6
				c-21.6,21.6-33.6,50.4-33.6,81.1c0,65.6,54.1,115.2,114.6,115.2c30.3,0,59.1-12.2,81.1-34.1c21.6-21.6,33.6-50.4,33.6-81.1V278
				h-42.9L327.1,285.1L327.1,285.1z M355.6,292.3c-3.8,53.6-49.2,93.6-100.1,93.6c-53.1,0-100.3-43.6-100.3-100.8
				c0-26.8,10.5-52,29.4-71s44.1-29.4,71-29.4c21.2,0,41.7,6.7,59,19.3l5.4,4l18.2-22.2l15.4,56.1h-61.5l18.8-23
				c-7.7-5.4-25.7-19.9-55.4-19.9c-47.4,0-86,38.5-86,86s38.5,86,86,86c45.6,0,82.1-35.3,85.6-78.9h14.4L355.6,292.3L355.6,292.3z"
				/>
		</g>
	</g>
	<path class="st0" d="M281,88.5c-7.9-7.9-18.2-11.8-28.6-11.8c-10.4,0-20.7,3.9-28.6,11.8c-15.8,15.8-15.8,41.5,0,57.3
		s41.5,15.8,57.3,0C296.8,130,296.8,104.3,281,88.5z M228.3,89.9c2.7-2.4,5.8-4.4,9.4-6l1.8-0.8l-1.2,1.6c-1.8,2.4-3.4,5.2-5,9
		l-0.2,0.6l-0.5-0.3c-1.4-0.9-2.9-2-4.3-3.2l-0.4-0.4L228.3,89.9z M216.2,114.5c0.5-7.6,3.5-15,8.5-20.8l0.3-0.4l0.4,0.3
		c2,1.8,3.9,3.2,6,4.4l0.3,0.2l-0.1,0.4c-1.4,4.9-2.2,10.3-2.4,15.9v0.5h-13.1L216.2,114.5z M225.1,141l-0.3-0.4
		c-5.1-5.8-8.1-13.2-8.6-20.8v-0.5h13.1v0.5c0.2,5.8,1,11.2,2.5,15.9l0.1,0.4l-0.3,0.2c-2.1,1.2-4.1,2.7-6,4.4L225.1,141z
		 M237.8,150.4c-3.6-1.6-6.7-3.6-9.4-6L228,144l0.4-0.4c1.6-1.4,3-2.4,4.3-3.2l0.5-0.3l0.2,0.6c1.4,3.5,3.1,6.5,5,9l1.2,1.6
		L237.8,150.4z M250.2,153.3l-0.6-0.2c-7-2-11.1-10.8-12.5-14.5l-0.2-0.4l0.4-0.2c3.8-1.8,7.9-2.9,12.4-3.2h0.5L250.2,153.3
		L250.2,153.3z M250.2,130.4h-0.5c-4.6,0.3-9.1,1.4-13.6,3.3l-0.5,0.2l-0.1-0.6c-1.1-4.3-1.8-8.9-2-13.6v-0.5h16.8L250.2,130.4
		L250.2,130.4z M250.2,115.1h-16.8v-0.5c0.2-5.2,0.9-9.6,2-13.6l0.2-0.5l0.5,0.2c4.3,1.8,8.9,2.9,13.7,3.3h0.5v11.1H250.2z
		 M250.2,99.6h-0.5c-4.5-0.3-8.6-1.4-12.4-3.1l-0.4-0.2l0.2-0.4c1.4-3.7,5.5-12.5,12.5-14.5l0.6-0.2V99.6z M279.6,93.3l0.3,0.4
		c5.1,5.9,8,13.1,8.5,20.8v0.5h-13v-0.5c-0.2-5.8-1-11.2-2.5-15.9l-0.1-0.4l0.3-0.2c2.1-1.2,4.1-2.7,6-4.4L279.6,93.3z M266.9,83.9
		c3.6,1.6,6.7,3.6,9.4,6l0.4,0.4l-0.4,0.4c-1.5,1.3-2.9,2.3-4.2,3.2l-0.5,0.3l-0.2-0.6c-1.3-3.4-3-6.4-5-9l-1.2-1.6L266.9,83.9z
		 M254.5,81.1l0.6,0.2c7,2,11.1,10.8,12.5,14.5l0.2,0.4l-0.4,0.2c-4.2,1.8-8.2,2.9-12.4,3.1h-0.5L254.5,81.1L254.5,81.1z
		 M254.5,103.9h0.5c4.6-0.3,9.1-1.4,13.6-3.3l0.5-0.2l0.1,0.6c1.1,4.3,1.8,8.9,2,13.6v0.5h-16.8L254.5,103.9L254.5,103.9z
		 M254.5,119.3h16.8v0.5c-0.2,5.2-0.9,9.6-2,13.6l-0.2,0.6l-0.5-0.2c-3.9-1.7-8.5-2.8-13.6-3.3h-0.5L254.5,119.3L254.5,119.3z
		 M255.1,153l-0.6,0.2v-18.5h0.5c4.5,0.3,8.6,1.4,12.4,3.1l0.4,0.2l-0.2,0.4C266.2,142.2,262.2,151,255.1,153z M276.3,144.4
		c-2.7,2.4-5.8,4.4-9.4,6l-1.8,0.8l1.2-1.6c1.9-2.5,3.6-5.5,5-9l0.2-0.6l0.5,0.3c1.4,0.9,2.9,2,4.3,3.2l0.4,0.4L276.3,144.4z
		 M280.1,140.6l-0.3,0.4l-0.4-0.3c-2-1.8-3.9-3.2-6-4.4l-0.3-0.2l0.1-0.4c1.5-5.2,2.3-10.5,2.5-15.9v-0.5h13.1v0.5
		C288,127.7,285,134.9,280.1,140.6z"/>
	<g>
		<g>
			<path class="st0" d="M168.5,418.5C168.5,418.5,168.5,418.4,168.5,418.5c0-0.1,0-0.1,0-0.2l0,0c0-0.1,0-0.1-0.1-0.1c0,0,0,0,0-0.1
				s0-0.1-0.1-0.1l0,0l-6.4-12.6v-41.5c0-1.3-1-2.3-2.3-2.3h-64c-1.3,0-2.3,1-2.3,2.3v41.5L86.9,418l0,0c0,0.1-0.1,0.1-0.1,0.1
				s0,0,0,0.1s0,0.1-0.1,0.1l0,0c0,0.1,0,0.1,0,0.1s0,0,0,0.1v0.1v3c0,1.5,1.2,2.7,2.7,2.7h76.1c1.5,0,2.7-1.2,2.7-2.7L168.5,418.5
				C168.5,418.6,168.5,418.5,168.5,418.5z M95.8,364h63.8v40.5H95.8V364z M95.4,406.9h64.7l5.3,10.5h-26.3l-1.3-4.8
				c-0.2-1-1.1-1.6-2.2-1.6h-15.8c-1,0-1.9,0.7-2.2,1.6l-1.3,4.8H90.1L95.4,406.9z M136.6,417.4h-17.9l1.1-4.1h15.7L136.6,417.4z
				 M166.1,421.6c0,0.2-0.2,0.4-0.4,0.4H89.6c-0.2,0-0.4-0.2-0.4-0.4v-1.8H166L166.1,421.6L166.1,421.6z"/>
		</g>
	</g>
	<g>
		<path class="st0" d="M419.9,378.1h-16.2v-12.7c0-1.2-0.9-2.1-2.1-2.1h-50.3c-1.2,0-2.1,0.9-2.1,2.1v55.3c0,5.9,4.8,10.7,10.7,10.7
			h51.6c5.9,0,10.7-4.8,10.7-10.7v-40.5C422,379,421.1,378.1,419.9,378.1z M359.7,427.2c-3.5,0-6.4-2.9-6.4-6.4v-53.2h46
			c0,56.5,0,53.4,0.1,54.2c0.2,2,0.9,3.9,2.1,5.4H359.7L359.7,427.2z M417.7,420.7c0,3.5-2.9,6.4-6.4,6.4c-0.5,0-0.8,0-1.3,0
			c-3.5,0-6.4-2.9-6.4-6.4v-38.3h14.1L417.7,420.7L417.7,420.7z"/>
		<path class="st0" d="M392.3,373.6h-32c-1.2,0-2.1,0.9-2.1,2.1s0.9,2.1,2.1,2.1h32c1.2,0,2.1-0.9,2.1-2.1S393.5,373.6,392.3,373.6z
			"/>
		<path class="st0" d="M392.3,382.6h-32c-1.2,0-2.1,0.9-2.1,2.1s0.9,2.1,2.1,2.1h32c1.2,0,2.1-0.9,2.1-2.1
			C394.5,383.6,393.5,382.6,392.3,382.6z"/>
		<path class="st0" d="M392.3,416.9h-32c-1.2,0-2.1,0.9-2.1,2.1s0.9,2.1,2.1,2.1h32c1.2,0,2.1-0.9,2.1-2.1
			C394.5,417.8,393.5,416.9,392.3,416.9z"/>
		<path class="st0" d="M392.3,391.8h-16c-1.2,0-2.1,0.9-2.1,2.1v16c0,1.2,0.9,2.1,2.1,2.1h16c1.2,0,2.1-0.9,2.1-2.1v-16
			C394.5,392.8,393.5,391.8,392.3,391.8z M390.2,407.8h-11.7v-11.7h11.7V407.8z"/>
		<path class="st0" d="M360.4,399.5h6.8c1.2,0,2.1-0.9,2.1-2.1s-0.9-2.1-2.1-2.1h-6.8c-1.2,0-2.1,0.9-2.1,2.1
			S359.2,399.5,360.4,399.5z"/>
		<path class="st0" d="M360.4,408.6h6.8c1.2,0,2.1-0.9,2.1-2.1s-0.9-2.1-2.1-2.1h-6.8c-1.2,0-2.1,0.9-2.1,2.1
			S359.2,408.6,360.4,408.6z"/>
	</g>
	<path class="st1" d="M202.4,381.5c0.8,4.3,1.2,8.7,1.2,13.3c0,41.9-34,75.9-76,75.9s-75.9-34-75.9-75.9s34-76,75.9-76
		c9.6,0,18.7,1.8,27.2,5"/>
	<path class="st1" d="M355.8,324.4c8.8-3.6,18.4-5.5,28.5-5.5c41.9,0,75.9,34,75.9,76s-34,75.9-75.9,75.9s-76-34-76-75.9
		c0-5.6,0.6-11,1.7-16.3"/>
	<path class="st1" d="M216.6,184.2c-23.9-12.8-40.2-38-40.2-67c0-41.9,34-75.9,76-75.9s75.9,34,75.9,75.9
		c0,28.7-15.9,53.7-39.5,66.6"/>
</g>
</svg>
