<?xml version="1.0" encoding="UTF-8"?>
<svg width="1280px" height="268px" viewBox="0 0 1280 268" xmlns="http://www.w3.org/2000/svg" xmlns:xlink="http://www.w3.org/1999/xlink" version="1.1">
 <!-- Generated by Pixelmator Pro 1.4 -->
 <path id="path" d="M0 0 L1280 0 1280 268 0 268 Z" fill="#ffffff" fill-opacity="1" stroke="none"/>
 <path id="path-1" d="M0 0 L1280 0 1280 268 0 268 Z" fill="#ffffff" fill-opacity="1" stroke="none"/>
 <path id="path-2" d="M904.294 130.547 C912.305 125.676 916.462 116.352 914.73 107.137 912.999 97.923 905.742 90.744 896.509 89.112 887.276 87.481 877.998 91.738 873.214 99.801 849.132 86.089 819.845 85.104 794.896 97.167 769.947 109.229 752.53 132.795 748.32 160.185 732.933 152.983 715.098 153.206 699.896 160.79 684.694 168.375 673.791 182.49 670.292 199.115 655.542 193.062 638.628 199.524 631.673 213.87 621.496 201.921 606.154 195.651 590.521 197.051 574.888 198.451 560.905 207.348 553.014 220.916 544.861 205.005 527.135 196.443 509.604 199.947 492.073 203.451 479 218.17 477.59 235.992 476.18 253.814 486.776 270.405 503.538 276.622 520.3 282.839 539.152 277.171 549.705 262.74 557.629 283.199 578.323 295.771 600.132 293.375 621.941 290.979 639.412 274.214 642.705 252.522 655.536 260.644 672.404 257.959 682.081 246.256 694.161 260.696 712.725 268.044 731.415 265.785 750.105 263.526 766.383 251.966 774.675 235.064 805.365 263.209 852.02 264.692 884.436 238.554 916.853 212.415 925.293 166.506 904.294 130.547 Z" fill="#f8f8f8" fill-opacity="1" stroke="none"/>
 <path id="path-3" d="M1241.383 68.657 C1216.344 68.651 1193.351 82.483 1181.624 104.606 1175.936 93.078 1164.689 85.313 1151.894 84.079 1139.099 82.844 1126.576 88.317 1118.789 98.545 1117.656 87.899 1109.37 79.419 1098.753 78.041 1088.136 76.662 1077.96 82.745 1074.146 92.748 1070.331 102.752 1073.875 114.065 1082.715 120.105 1091.555 126.145 1103.383 125.334 1111.316 118.145 1111.242 119.104 1111.191 120.068 1111.191 121.045 1111.191 136.083 1120.257 149.634 1134.154 155.371 1148.051 161.108 1164.036 157.899 1174.641 147.242 1180.455 182.701 1212.98 207.42 1248.699 203.533 1284.417 199.645 1310.862 168.508 1308.915 132.631 1306.968 96.754 1277.309 68.661 1241.379 68.662 Z" fill="#f8f8f8" fill-opacity="1" stroke="none"/>
 <path id="path-4" d="M844.607 176.272 L909.153 90.238 C910.956 87.832 913.695 86.305 916.69 86.037 919.684 85.769 922.651 86.785 924.853 88.832 L941.861 104.632 1025.321 34.632 C1029.372 31.234 1034.641 29.647 1039.895 30.245 1045.15 30.842 1049.928 33.569 1053.114 37.79 L1116.914 122.367 1125.757 113.029 C1127.831 110.84 1130.711 109.596 1133.726 109.587 1136.741 109.578 1139.629 110.806 1141.715 112.983 L1195.601 169.227 1195.601 233.253 844.601 233.253 Z" fill="#a6e8eb" fill-opacity="1" stroke="none"/>
 <path id="path-5" d="M850.906 167.879 L867.152 190.007 890.538 115.051 Z" fill="#c3f3f4" fill-opacity="1" stroke="none"/>
 <path id="path-6" d="M1011.416 46.292 L941.86 104.63 953.686 114.973 Z" fill="#c3f3f4" fill-opacity="1" stroke="none"/>
 <path id="path-7" d="M1046.755 32.382 L1103.682 184.406 1176.154 204.592 1116.918 122.368 1051.092 35.547 C1049.802 34.293 1048.342 33.228 1046.755 32.382 Z" fill="#8ce2e6" fill-opacity="1" stroke="none"/>
 <path id="path-8" d="M965.29 125.493 L942.078 104.449 941.861 104.631 924.851 88.831 935.67 162.153 Z" fill="#8ce2e6" fill-opacity="1" stroke="none"/>
 <path id="path-9" d="M715.525 247.917 L821.981 148.982 C830.61 140.962 844.078 141.348 852.234 149.849 L884.614 183.596 969.92 108.217 C972.896 105.587 976.831 104.311 980.784 104.693 984.737 105.075 988.354 107.082 990.772 110.233 L1018.56 146.456 1041.604 133.156 C1046.367 130.406 1052.347 130.962 1056.521 134.543 L1096.7 169.005 1140.79 204.591 1185.928 145.617 C1188.316 142.496 1191.97 140.601 1195.897 140.448 1199.824 140.295 1203.615 141.899 1206.239 144.825 L1250.339 193.977 1250.339 247.917 Z" fill="#6bcce2" fill-opacity="1" stroke="none"/>
 <path id="path-10" d="M741.626 247.913 L747.098 247.913 808.522 161.486 725.213 238.909 Z" fill="#89d6e8" fill-opacity="1" stroke="none"/>
 <path id="path-11" d="M965.666 111.978 L884.613 183.593 873.837 172.362 867.372 176.962 895.885 228.778 Z" fill="#89d6e8" fill-opacity="1" stroke="none"/>
 <path id="path-12" d="M1163.776 221.39 L1191.434 141.428 C1189.256 142.307 1187.355 143.755 1185.929 145.621 L1145.552 198.368 Z" fill="#89d6e8" fill-opacity="1" stroke="none"/>
 <path id="path-13" d="M1046.661 131.506 C1044.879 131.699 1043.156 132.261 1041.603 133.156 L1018.559 146.456 1012.459 138.506 1004.633 141.152 1018.558 166.352 Z" fill="#89d6e8" fill-opacity="1" stroke="none"/>
 <path id="path-14" d="M869.363 216.749 L898.763 201.719 884.776 183.451 884.614 183.594 852.236 149.847 C851.775 149.366 851.292 148.92 850.798 148.49 Z" fill="#54b4d8" fill-opacity="1" stroke="none"/>
 <path id="path-15" d="M984.026 105.409 L1025.19 219.399 1059.671 198.843 987.885 107.427 C986.71 106.56 985.408 105.879 984.026 105.409 Z" fill="#54b4d8" fill-opacity="1" stroke="none"/>
 <path id="path-16" d="M1062.245 139.458 L1080.222 186.246 1105.816 176.368 1096.695 169.006 Z" fill="#54b4d8" fill-opacity="1" stroke="none"/>
 <path id="path-17" d="M1237.38 233.253 L1250.34 222.653 1250.34 193.982 1206.24 144.83 C1205.891 144.442 1205.521 144.075 1205.13 143.73 Z" fill="#54b4d8" fill-opacity="1" stroke="none"/>
 <path id="path-18" d="M1182.343 216.97 L1173.712 207.878 1168.247 192.599 C1167.957 191.788 1167.197 191.24 1166.336 191.22 1165.475 191.2 1164.691 191.713 1164.364 192.51 L1162.782 196.365 1139.606 171.953 C1125.61 157.21 1103.61 153.375 1085.451 162.512 L1059.505 175.564 1057.179 169.064 C1056.889 168.253 1056.129 167.704 1055.268 167.685 1054.407 167.665 1053.623 168.178 1053.296 168.975 L1048.27 181.222 1018.37 196.265 1017.061 192.603 C1016.771 191.792 1016.011 191.244 1015.15 191.224 1014.289 191.204 1013.505 191.717 1013.178 192.514 L1009.888 200.532 967.835 221.69 948.646 205.255 944.121 192.603 C943.831 191.792 943.071 191.244 942.21 191.224 941.349 191.204 940.565 191.717 940.238 192.514 L938.531 196.673 C922.496 184.278 900.128 184.228 884.038 196.55 L841.954 228.778 834.461 223.883 828.742 207.895 C828.452 207.084 827.692 206.536 826.831 206.516 825.97 206.496 825.186 207.009 824.859 207.806 L821.685 215.538 816.069 211.868 C806.064 205.332 793.094 205.519 783.282 212.341 L768.125 222.879 766.75 219.032 C766.46 218.221 765.7 217.672 764.839 217.653 763.978 217.633 763.194 218.146 762.867 218.943 L758.508 229.566 741.497 241.392 724.158 224.053 C719.571 219.466 712.475 218.532 706.858 221.776 L691.476 230.657 688.504 222.347 C688.213 221.537 687.454 220.989 686.593 220.969 685.732 220.95 684.949 221.462 684.621 222.258 L677.975 238.451 625.344 268.843 1281.214 268.843 1281.214 159.887 Z" fill="#428ec7" fill-opacity="1" stroke="none"/>
 <path id="path-19" d="M1182.343 216.97 L1173.712 207.878 1168.247 192.599 C1167.957 191.788 1167.197 191.24 1166.336 191.22 1165.475 191.2 1164.691 191.713 1164.364 192.51 L1162.782 196.365 1139.606 171.953 C1125.61 157.21 1103.61 153.375 1085.451 162.512 L1059.505 175.564 1057.179 169.064 C1056.889 168.253 1056.129 167.704 1055.268 167.685 1054.407 167.665 1053.623 168.178 1053.296 168.975 L1048.27 181.222 1018.37 196.265 1017.061 192.603 C1016.771 191.792 1016.011 191.244 1015.15 191.224 1014.289 191.204 1013.505 191.717 1013.178 192.514 L1009.888 200.532 967.835 221.69 948.646 205.255 944.121 192.603 C943.831 191.792 943.071 191.244 942.21 191.224 941.349 191.204 940.565 191.717 940.238 192.514 L938.531 196.673 C922.496 184.278 900.128 184.228 884.038 196.55 L841.954 228.778 834.461 223.883 828.742 207.895 C828.452 207.084 827.692 206.536 826.831 206.516 825.97 206.496 825.186 207.009 824.859 207.806 L821.685 215.538 816.069 211.868 C806.064 205.332 793.094 205.519 783.282 212.341 L768.125 222.879 766.75 219.032 C766.46 218.221 765.7 217.672 764.839 217.653 763.978 217.633 763.194 218.146 762.867 218.943 L758.508 229.566 741.497 241.392 724.158 224.053 C719.571 219.466 712.475 218.532 706.858 221.776 L691.476 230.657 688.504 222.347 C688.213 221.537 687.453 220.989 686.593 220.969 685.732 220.95 684.948 221.462 684.621 222.258 L677.975 238.451 625.344 268.843 645.251 268.843 706.859 233.275 C712.476 230.03 719.573 230.964 724.159 235.552 L741.498 252.891 783.284 223.841 C793.096 217.019 806.066 216.832 816.071 223.368 L841.956 240.278 884.038 208.043 C900.128 195.72 922.496 195.77 938.531 208.165 L967.831 233.182 1085.447 174.008 C1103.606 164.871 1125.606 168.707 1139.602 183.45 L1182.34 228.466 1281.211 171.383 1281.211 159.887 Z" fill="#499cdb" fill-opacity="1" stroke="none"/>
 <path id="path-20" d="M1151.399 14.063 C1149.541 14.062 1147.693 14.348 1145.922 14.909 1140.775 7.342 1131.579 3.616 1122.617 5.467 1113.654 7.317 1106.686 14.38 1104.957 23.367 1104.818 23.362 1104.681 23.346 1104.539 23.346 1097.138 23.41 1091.172 29.427 1091.172 36.828 1091.172 44.23 1097.138 50.247 1104.539 50.311 L1151.398 50.311 C1157.873 50.311 1163.857 46.856 1167.094 41.249 1170.332 35.641 1170.332 28.732 1167.094 23.124 1163.857 17.516 1157.873 14.062 1151.398 14.062 Z" fill="#f8f8f8" fill-opacity="1" stroke="none"/>
 <path id="path-21" d="M646.453 104.244 C644.595 104.243 642.747 104.528 640.976 105.09 635.829 97.523 626.633 93.797 617.671 95.648 608.708 97.498 601.74 104.561 600.011 113.548 599.872 113.543 599.735 113.527 599.593 113.527 592.192 113.591 586.226 119.608 586.226 127.009 586.226 134.411 592.192 140.428 599.593 140.492 L646.453 140.492 C652.928 140.492 658.912 137.037 662.149 131.43 665.387 125.822 665.387 118.913 662.149 113.305 658.912 107.697 652.928 104.243 646.453 104.243 Z" fill="#f8f8f8" fill-opacity="1" stroke="none"/>
 <path id="path-22" d="M625.344 268.839 L625.344 268.839 C677.245 258.449 730.047 253.217 782.978 253.219 L1281.214 253.219 1281.214 268.839 Z" fill="#437dc0" fill-opacity="1" stroke="none"/>
 <path id="path-23" d="M1196.846 239.957 C1196.846 241.605 1195.51 242.941 1193.862 242.941 1192.214 242.941 1190.878 241.605 1190.878 239.957 1190.878 238.309 1192.214 236.973 1193.862 236.973 1195.51 236.973 1196.846 238.309 1196.846 239.957 Z" fill="#499cdb" fill-opacity="1" stroke="none"/>
 <path id="path-24" d="M1061.328 224.358 C1061.328 226.006 1059.992 227.342 1058.344 227.342 1056.696 227.342 1055.36 226.006 1055.36 224.358 1055.36 222.71 1056.696 221.374 1058.344 221.374 1059.992 221.374 1061.328 222.71 1061.328 224.358 Z" fill="#71c97c" fill-opacity="1" stroke="none"/>
 <path id="path-25" d="M938.656 233.253 C938.656 234.901 937.32 236.237 935.672 236.237 934.024 236.237 932.688 234.901 932.688 233.253 932.688 231.605 934.024 230.269 935.672 230.269 937.32 230.269 938.656 231.605 938.656 233.253 Z" fill="#437dc0" fill-opacity="1" stroke="none"/>
 <path id="path-26" d="M787.471 239.957 C787.471 241.605 786.135 242.941 784.487 242.941 782.839 242.941 781.503 241.605 781.503 239.957 781.503 238.309 782.839 236.973 784.487 236.973 786.135 236.973 787.471 238.309 787.471 239.957 Z" fill="#499cdb" fill-opacity="1" stroke="none"/>
 <path id="path-27" d="M808.644 182.245 C808.644 183.514 807.615 184.543 806.346 184.543 805.077 184.543 804.048 183.514 804.048 182.245 804.048 180.976 805.077 179.947 806.346 179.947 807.615 179.947 808.644 180.976 808.644 182.245 Z" fill="#89d6e8" fill-opacity="1" stroke="none"/>
 <path id="path-28" d="M848.475 199.177 C848.475 200.825 847.139 202.161 845.491 202.161 843.843 202.161 842.507 200.825 842.507 199.177 842.507 197.529 843.843 196.193 845.491 196.193 847.139 196.193 848.475 197.529 848.475 199.177 Z" fill="#89d6e8" fill-opacity="1" stroke="none"/>
 <path id="path-29" d="M944.545 166.977 C944.545 168.054 943.672 168.927 942.595 168.927 941.518 168.927 940.645 168.054 940.645 166.977 940.645 165.9 941.518 165.027 942.595 165.027 943.672 165.027 944.545 165.9 944.545 166.977 Z" fill="#89d6e8" fill-opacity="1" stroke="none"/>
 <path id="path-30" d="M896.975 155.68 C896.975 156.866 896.014 157.827 894.828 157.827 893.642 157.827 892.681 156.866 892.681 155.68 892.681 154.494 893.642 153.533 894.828 153.533 896.014 153.533 896.975 154.494 896.975 155.68 Z" fill="#c3f3f4" fill-opacity="1" stroke="none"/>
 <path id="path-31" d="M911.359 109.825 C911.359 110.832 910.542 111.649 909.535 111.649 908.527 111.649 907.711 110.832 907.711 109.825 907.711 108.818 908.527 108.001 909.535 108.001 910.542 108.001 911.359 108.818 911.359 109.825 Z" fill="#c3f3f4" fill-opacity="1" stroke="none"/>
 <path id="path-32" d="M919.647 133.862 C919.647 135.144 918.608 136.183 917.326 136.183 916.044 136.183 915.005 135.144 915.005 133.862 915.005 132.58 916.044 131.541 917.326 131.541 918.608 131.541 919.647 132.58 919.647 133.862 Z" fill="#c3f3f4" fill-opacity="1" stroke="none"/>
 <path id="path-33" d="M1029.72 57.716 C1029.72 58.476 1029.263 59.161 1028.561 59.453 1027.858 59.744 1027.05 59.583 1026.512 59.046 1025.975 58.509 1025.814 57.7 1026.105 56.998 1026.396 56.296 1027.081 55.838 1027.841 55.838 1028.878 55.838 1029.719 56.679 1029.72 57.716 Z" fill="#c3f3f4" fill-opacity="1" stroke="none"/>
 <path id="path-34" d="M1144.325 128.326 C1144.325 129.086 1143.867 129.771 1143.165 130.062 1142.462 130.353 1141.654 130.192 1141.117 129.654 1140.579 129.117 1140.419 128.308 1140.71 127.606 1141.001 126.904 1141.687 126.447 1142.447 126.447 1143.484 126.448 1144.325 127.289 1144.325 128.326 Z" fill="#c3f3f4" fill-opacity="1" stroke="none"/>
 <path id="path-35" d="M1025.962 119.995 C1025.962 120.734 1025.517 121.399 1024.835 121.682 1024.152 121.965 1023.367 121.808 1022.845 121.286 1022.322 120.764 1022.166 119.979 1022.449 119.296 1022.731 118.614 1023.397 118.169 1024.136 118.169 1025.144 118.169 1025.962 118.986 1025.962 119.995 Z" fill="#c3f3f4" fill-opacity="1" stroke="none"/>
 <path id="path-36" d="M1009.184 73.791 C1009.184 75.439 1007.848 76.775 1006.2 76.775 1004.552 76.775 1003.216 75.439 1003.216 73.791 1003.216 72.143 1004.552 70.807 1006.2 70.807 1007.848 70.807 1009.184 72.143 1009.184 73.791 Z" fill="#c3f3f4" fill-opacity="1" stroke="none"/>
 <path id="path-37" d="M1052.155 96.175 C1052.155 97.069 1051.617 97.875 1050.791 98.218 1049.965 98.56 1049.014 98.371 1048.382 97.739 1047.75 97.106 1047.561 96.155 1047.903 95.33 1048.246 94.504 1049.052 93.965 1049.946 93.966 1051.166 93.967 1052.154 94.955 1052.155 96.175 Z" fill="#c3f3f4" fill-opacity="1" stroke="none"/>
 <path id="path-38" d="M1158.029 153.904 C1158.029 155.125 1157.04 156.115 1155.819 156.115 1154.598 156.116 1153.608 155.127 1153.607 153.906 1153.606 152.685 1154.594 151.695 1155.815 151.693 1156.402 151.692 1156.965 151.925 1157.38 152.34 1157.796 152.754 1158.029 153.317 1158.029 153.904 Z" fill="#c3f3f4" fill-opacity="1" stroke="none"/>
 <path id="path-39" d="M1071.375 126.231 C1071.375 127.388 1070.437 128.326 1069.28 128.326 1068.123 128.326 1067.185 127.388 1067.185 126.231 1067.185 125.074 1068.123 124.136 1069.28 124.136 1070.437 124.136 1071.375 125.074 1071.375 126.231 Z" fill="#c3f3f4" fill-opacity="1" stroke="none"/>
 <path id="path-40" d="M994.08 155.729 C994.08 156.736 993.263 157.553 992.256 157.553 991.248 157.553 990.432 156.736 990.432 155.729 990.432 154.722 991.248 153.905 992.256 153.905 993.263 153.905 994.08 154.722 994.08 155.729 Z" fill="#89d6e8" fill-opacity="1" stroke="none"/>
 <path id="path-41" d="M963.183 185.063 C963.183 186.711 961.847 188.047 960.199 188.047 958.551 188.047 957.215 186.711 957.215 185.063 957.215 183.415 958.551 182.079 960.199 182.079 961.847 182.079 963.183 183.415 963.183 185.063 Z" fill="#6bcce2" fill-opacity="1" stroke="none"/>
 <path id="path-42" d="M1058.344 145.355 C1058.344 147.003 1057.008 148.339 1055.36 148.339 1053.712 148.339 1052.376 147.003 1052.376 145.355 1052.376 143.707 1053.712 142.371 1055.36 142.371 1057.008 142.371 1058.344 143.707 1058.344 145.355 Z" fill="#89d6e8" fill-opacity="1" stroke="none"/>
 <path id="path-43" d="M1202.813 163.562 C1202.813 164.615 1201.96 165.468 1200.907 165.468 1199.854 165.468 1199.001 164.615 1199.001 163.562 1199.001 162.509 1199.854 161.656 1200.907 161.656 1201.96 161.656 1202.813 162.509 1202.813 163.562 Z" fill="#89d6e8" fill-opacity="1" stroke="none"/>
 <path id="path-44" d="M1042.817 161.158 C1042.818 161.784 1042.441 162.349 1041.863 162.589 1041.284 162.83 1040.618 162.698 1040.175 162.255 1039.732 161.813 1039.599 161.147 1039.838 160.568 1040.078 159.989 1040.642 159.612 1041.269 159.612 1042.123 159.612 1042.816 160.304 1042.817 161.158 Z" fill="#89d6e8" fill-opacity="1" stroke="none"/>
 <path id="path-45" d="M1193.862 184.699 C1193.862 186.347 1192.526 187.683 1190.878 187.683 1189.23 187.683 1187.894 186.347 1187.894 184.699 1187.894 183.051 1189.23 181.715 1190.878 181.715 1192.526 181.715 1193.862 183.051 1193.862 184.699 Z" fill="#89d6e8" fill-opacity="1" stroke="none"/>
 <path id="path-46" d="M978.773 136.183 C978.773 137.831 977.437 139.167 975.789 139.167 974.141 139.167 972.805 137.831 972.805 136.183 972.805 134.535 974.141 133.199 975.789 133.199 977.437 133.199 978.773 134.535 978.773 136.183 Z" fill="#89d6e8" fill-opacity="1" stroke="none"/>
 <path id="path-47" d="M984.741 200.752 C984.74 201.53 984.109 202.16 983.332 202.16 982.554 202.16 981.923 201.529 981.923 200.751 981.923 199.973 982.553 199.343 983.331 199.342 983.705 199.342 984.063 199.49 984.328 199.755 984.592 200.019 984.741 200.378 984.741 200.752 Z" fill="#6bcce2" fill-opacity="1" stroke="none"/>
 <path id="path-48" d="M843.063 163.811 C843.063 164.787 842.271 165.579 841.295 165.579 840.319 165.579 839.527 164.788 839.527 163.812 839.526 162.835 840.318 162.043 841.294 162.043 842.27 162.043 843.062 162.834 843.063 163.811 Z" fill="#89d6e8" fill-opacity="1" stroke="none"/>
 <path id="path-49" d="M878.167 239.957 C878.167 241.605 876.831 242.941 875.183 242.941 873.535 242.941 872.199 241.605 872.199 239.957 872.199 238.309 873.535 236.973 875.183 236.973 876.831 236.973 878.167 238.309 878.167 239.957 Z" fill="#71c97c" fill-opacity="1" stroke="none"/>
 <path id="path-50" d="M717.846 244.377 C717.846 246.025 716.51 247.361 714.862 247.361 713.214 247.361 711.878 246.025 711.878 244.377 711.878 242.729 713.214 241.393 714.862 241.393 716.51 241.393 717.846 242.729 717.846 244.377 Z" fill="#71c97c" fill-opacity="1" stroke="none"/>
 <path id="path-51" d="M1108.408 233.253 C1108.408 234.901 1107.072 236.237 1105.424 236.237 1103.776 236.237 1102.44 234.901 1102.44 233.253 1102.44 231.605 1103.776 230.269 1105.424 230.269 1107.072 230.269 1108.408 231.605 1108.408 233.253 Z" fill="#499cdb" fill-opacity="1" stroke="none"/>
 <path id="path-52" d="M1238.596 228.78 C1238.596 231.22 1236.617 233.2 1234.176 233.2 1231.734 233.2 1229.755 231.222 1229.754 228.78 1229.753 226.339 1231.731 224.359 1234.173 224.358 1236.616 224.358 1238.596 226.338 1238.596 228.78 Z" fill="#71c97c" fill-opacity="1" stroke="none"/>
 <path id="path-53" d="M1128.632 196.414 C1128.632 198.201 1127.555 199.813 1125.903 200.497 1124.25 201.182 1122.349 200.803 1121.085 199.539 1119.82 198.275 1119.442 196.373 1120.126 194.721 1120.811 193.069 1122.423 191.992 1124.211 191.992 1125.384 191.992 1126.509 192.458 1127.338 193.287 1128.167 194.117 1128.632 195.241 1128.632 196.414 Z" fill="#437dc0" fill-opacity="1" stroke="none"/>
 <path id="path-54" d="M1007.066 236.973 C1007.066 239.415 1005.086 241.394 1002.645 241.394 1000.203 241.394 998.224 239.415 998.224 236.973 998.224 234.531 1000.203 232.552 1002.645 232.552 1005.086 232.552 1007.066 234.531 1007.066 236.973 Z" fill="#499cdb" fill-opacity="1" stroke="none"/>
 <path id="path-55" d="M904.507 216.957 C904.507 218.746 903.43 220.359 901.777 221.043 900.125 221.727 898.223 221.348 896.959 220.083 895.695 218.819 895.317 216.917 896.002 215.265 896.687 213.613 898.3 212.536 900.088 212.537 901.259 212.537 902.383 213.003 903.212 213.832 904.041 214.661 904.507 215.785 904.507 216.957 Z" fill="#499cdb" fill-opacity="1" stroke="none"/>
 <path id="path-56" d="M824.052 239.957 C824.052 242.399 822.073 244.378 819.631 244.378 817.189 244.378 815.21 242.399 815.21 239.957 815.21 237.515 817.189 235.536 819.631 235.536 822.073 235.536 824.052 237.515 824.052 239.957 Z" fill="#437dc0" fill-opacity="1" stroke="none"/>
</svg>
