<?xml version="1.0" encoding="UTF-8"?>
<svg width="64px" height="64px" viewBox="0 0 64 64" version="1.1" xmlns="http://www.w3.org/2000/svg" xmlns:xlink="http://www.w3.org/1999/xlink">
    <!-- Generator: Sketch 58 (84663) - https://sketch.com -->
    <title>icon_64x64/hosting</title>
    <desc>Created with Sketch.</desc>
    <g id="icon_64x64/hosting" stroke="none" stroke-width="1" fill="none" fill-rule="evenodd" stroke-linecap="round" stroke-linejoin="round">
        <polyline id="Path" stroke="#FFFFFF" stroke-width="2" points="34.765625 52 12 52 12 12 52 12 52 38.8920898"></polyline>
        <path d="M32,12 L32,52" id="Path" stroke="#FFFFFF" stroke-width="2" fill="#FFFFFF"></path>
        <path d="M38,20 L46,20" id="Path" stroke="#FFFFFF" fill="#FFFFFF"></path>
        <path d="M38,26 L46,26" id="Path" stroke="#FFFFFF" fill="#FFFFFF"></path>
        <path d="M38,32 L46,32" id="Path" stroke="#FFFFFF" fill="#FFFFFF"></path>
        <path d="M18,20 L26,20" id="Path" stroke="#FFFFFF" fill="#FFFFFF"></path>
        <path d="M18,26 L26,26" id="Path" stroke="#FFFFFF" fill="#FFFFFF"></path>
        <path d="M18,32 L26,32" id="Path" stroke="#FFFFFF" fill="#FFFFFF"></path>
        <g id="Group" transform="translate(37.000000, 40.500000)" stroke="#FFFFFF" stroke-width="2">
            <polyline id="Path" transform="translate(22.000000, 5.500000) rotate(-270.000000) translate(-22.000000, -5.500000) " points="17 8 22 3 27 8"></polyline>
            <path d="M24,5.5 L0,5.5" id="Line-8" fill="#FFFFFF"></path>
        </g>
        <g id="Group" transform="translate(49.500000, 56.500000) rotate(-180.000000) translate(-49.500000, -56.500000) translate(37.000000, 51.000000)" stroke="#FFFFFF" stroke-width="2">
            <polyline id="Path" transform="translate(22.000000, 5.500000) rotate(-270.000000) translate(-22.000000, -5.500000) " points="17 8 22 3 27 8"></polyline>
            <path d="M24,5.5 L0,5.5" id="Line-8" fill="#FFFFFF"></path>
        </g>
    </g>
</svg>