<?xml version="1.0" encoding="UTF-8"?>
<svg width="64px" height="64px" viewBox="0 0 64 64" version="1.1" xmlns="http://www.w3.org/2000/svg" xmlns:xlink="http://www.w3.org/1999/xlink">
    <!-- Generator: Sketch 58 (84663) - https://sketch.com -->
    <title>icon_64x64/live_reports</title>
    <desc>Created with Sketch.</desc>
    <g id="icon_64x64/live_reports" stroke="none" stroke-width="1" fill="none" fill-rule="evenodd">
        <rect id="Rectangle-4" x="0" y="0" width="64" height="64"></rect>
        <g id="Group-2" transform="translate(9.000000, 9.000000)" stroke="#B7BFDD" stroke-linecap="round" stroke-linejoin="round">
            <polyline id="Path" stroke-width="2" points="21.5395508 43 0 43 0 0 0 0 27.5 0 34 7 34 27.7458496"></polyline>
            <polygon id="Rectangle-7" stroke-width="2" points="34 6.5 28 6.5 28 0"></polygon>
            <path d="M6,13 L21,13" id="Line-2" fill="#FFFFFF"></path>
            <path d="M6,19 L21,19" id="Line-2" fill="#FFFFFF"></path>
            <path d="M6,25 L14,25" id="Line-2" fill="#FFFFFF"></path>
            <path d="M25,19 L28.5,19" id="Line-2" fill="#FFFFFF"></path>
            <path d="M25,13 L28.5,13" id="Line-2" fill="#FFFFFF"></path>
        </g>
        <g id="preview" transform="translate(28.000000, 37.000000)" stroke="#B7BFDD" stroke-linecap="round" stroke-linejoin="round">
            <path d="M0.286380482,11.9203333 C-0.0938588255,11.3658152 -0.0955944603,10.6323409 0.282016199,10.076 C2.09101147,7.42866667 7.88968871,0 16.0021633,0 C24.0418998,0 29.880583,7.41766667 31.7135818,10.0708667 C32.0970646,10.6293929 32.0953236,11.3695138 31.7092175,11.9262 C29.8623985,14.5757333 23.9786177,22 16.0021633,22 C7.95297081,22 2.10919598,14.5647333 0.286380482,11.9203333 Z" id="Path" stroke-width="2"></path>
            <circle id="Oval" cx="16" cy="11" r="5"></circle>
        </g>
    </g>
</svg>