<svg xmlns="http://www.w3.org/2000/svg" xmlns:xlink="http://www.w3.org/1999/xlink" width="175px" height="40px" viewBox="0 0 175 40"><title>Slice</title><desc>Created with Sketch.</desc><defs><linearGradient x1="21.249277%" y1="77.7149321%" x2="76.179321%" y2="18.2126697%" id="linearGradient-1"><stop stop-color="#00B0C2" offset="0%"></stop><stop stop-color="#69D757" offset="100%"></stop></linearGradient><linearGradient x1="-39.604044%" y1="257.348703%" x2="47.7414018%" y2="55.2353506%" id="linearGradient-2"><stop stop-color="#00B0C2" offset="0%"></stop><stop stop-color="#69D757" offset="100%"></stop></linearGradient><linearGradient x1="82.3357803%" y1="13.032812%" x2="3.32475529%" y2="86.4152101%" id="linearGradient-3"><stop stop-color="#00B0C2" offset="0%"></stop><stop stop-color="#69D757" offset="100%"></stop></linearGradient><linearGradient x1="117.633828%" y1="9.09577397%" x2="-5.80296896%" y2="72.8222147%" id="linearGradient-4"><stop stop-color="#00B0C2" offset="0%"></stop><stop stop-color="#69D757" offset="100%"></stop></linearGradient></defs><g id="Page-1" stroke="none" stroke-width="1" fill="none" fill-rule="evenodd"><g id="General-Horizontal" transform="translate(-42.000000, -69.000000)" fill-rule="nonzero"><rect id="Rectangle" fill="#FFFFFF" x="0" y="0.25" width="258.76" height="177.27"></rect><polygon id="Path" fill="url(#linearGradient-1)" points="72.46 90.97 72.46 96.51 59.26 104.13 50.23 98.92 50.23 98.88 50.23 94.1 50.23 83.68 59.26 78.47 68.28 83.68 68.28 78.9 68.28 78.85 59.26 73.64 46.06 81.27 46.06 96.51 46.06 101.38 50.2 103.78 59.26 109 76.68 98.95 76.68 90.97"></polygon><polygon id="Path" fill="url(#linearGradient-2)" points="74.43 86.8 76.68 86.8 76.68 78.83 72.46 76.39 72.46 81.27 72.46 86.8"></polygon><polygon id="Path" fill="url(#linearGradient-3)" points="68.28 78.85 68.28 78.9 68.28 83.68 68.28 86.8 72.46 86.8 72.46 81.27 72.46 76.39 68.49 74.1 68.28 73.98 59.26 68.77 41.84 78.83 41.84 98.95 46.06 101.38 46.06 96.51 46.06 81.27 59.26 73.64"></polygon><polygon id="Path" fill="url(#linearGradient-4)" points="68.28 90.97 68.28 94.1 59.26 99.31 50.23 94.1 50.23 98.88 50.23 98.92 59.26 104.13 72.46 96.51 72.46 90.97"></polygon><path d="M130.14,85 C130.134496,81.9315795 127.648421,79.4455039 124.58,79.44 L114.05,79.44 L114.05,83 L124.58,83 C125.634864,83 126.49,83.8551361 126.49,84.91 C126.49,85.9648639 125.634864,86.82 124.58,86.82 L114.05,86.82 L114.05,90.48 L119.23,90.48 L124.91,98.02 L129.48,98.02 L123.8,90.48 L124.58,90.48 C127.617526,90.4749431 130.090924,88.0371337 130.14,85 Z" id="Path" fill="#323031"></path><path d="M152.85,79.39 L142.32,79.39 L142.32,83 L152.85,83 C153.904864,83 154.76,83.8551361 154.76,84.91 C154.76,85.9648639 153.904864,86.82 152.85,86.82 L142.32,86.82 L142.32,90.48 L152.85,90.48 C153.904864,90.48 154.76,91.3351361 154.76,92.39 C154.76,93.4448639 153.904864,94.3 152.85,94.3 L142.32,94.3 L142.32,98.0001846 L152.85,98.0001846 C155.06135,98.0179612 157.073116,96.7237175 157.973473,94.7038791 C158.873831,92.6840407 158.49159,90.3226512 157,88.69 C158.479845,87.0621229 158.860676,84.7147677 157.971396,82.7025283 C157.082116,80.6902888 155.089983,79.3916305 152.89,79.39 L152.85,79.39 Z" id="Path" fill="#323031"></path><path d="M178.74,78.659995 C173.094062,78.6765571 168.52899,83.2639897 168.54,88.9099414 C168.551049,94.555893 173.134011,99.125454 178.779971,99.1199561 C184.42593,99.1144483 189,94.5359624 189,88.89 C188.988965,83.2329874 184.397021,78.6544702 178.74,78.659995 L178.74,78.659995 Z M178.74,95.2300079 C176.174803,95.2340461 173.859942,93.6919226 172.875479,91.3231501 C171.891016,88.9543776 172.430968,86.225792 174.243406,84.4104906 C176.055844,82.5951893 178.783574,82.0509304 181.153898,83.0316531 C183.524221,84.0123759 185.07,86.3248 185.07,88.89 C185.064513,92.3853092 182.235296,95.2189954 178.74,95.2300079 L178.74,95.2300079 Z" id="Shape" fill="#323031"></path><polygon id="Path" fill="#323031" points="199.98 97.98 204.2 97.98 204.2 97.92 199.98 92.59"></polygon><polygon id="Path" fill="#323031" points="212.74 79.26 212.74 85.55 213 91.43 203.56 79.26 199.98 79.26 199.98 80.94 204.04 86.07 206.61 89.31 213.34 97.98 216.93 97.98 216.93 79.26"></polygon><polygon id="Path" fill="#323031" points="97.15 90.36 100.08 98.06 104.76 98.06 99.29 84.89"></polygon><polygon id="Path" fill="#323031" points="84.86 98.06 89.54 98.06 92.62 90 94.84 84.31 96.82 79.26 92.65 79.26"></polygon></g></g></svg>