<svg xmlns="http://www.w3.org/2000/svg" viewBox="0 0 512 512"><defs><style>.cls-1{fill:none;}.cls-2{fill:#b7bfdd;}</style></defs><g id="Layer_2" data-name="Layer 2"><g id="Layer_2-2" data-name="Layer 2"><rect class="cls-1" width="512" height="512"/><path class="cls-2" d="M95.68,295.08l53.17,37.44,0,0a19,19,0,0,0,4,26.54,18.67,18.67,0,0,0,9.09,3.54,19,19,0,0,0,5.78,23.53A18.72,18.72,0,0,0,187,388,18.83,18.83,0,0,0,194,398.29a18.4,18.4,0,0,0,18.27,2.24,18.78,18.78,0,0,0,7.11,10.93,18.56,18.56,0,0,0,21.26.72A33.31,33.31,0,0,0,256,415.94a32.55,32.55,0,0,0,15.66-3.81c5-2.81,8.08-6.92,8.88-11.57a27.75,27.75,0,0,0,28-5.7,21.46,21.46,0,0,0,7.57-16.06c0-.12,0-.22,0-.33a27.66,27.66,0,0,0,28.54-5.15,24.29,24.29,0,0,0,8.67-20.51,27.8,27.8,0,0,0,38.18-27.36A29,29,0,0,0,391,322l26.33-11.78,4.85,11.57,65.29-27.6L419.59,122.55l-68.7,29.05,5.55,13.24L269.17,141.2l-41.93,18.59-84.77-6.15,7-21L82.55,110.47,24.61,285.64l66.87,22.12Zm60.86,43.16L163,329.5a9.37,9.37,0,0,1,16.22,9.08L170,351a9.59,9.59,0,0,1-11.52.36,9.4,9.4,0,0,1-2-13.13Zm16.84,40.2a9.42,9.42,0,0,1-2-13.14l21-28.38a9.39,9.39,0,0,1,15.11,11.16l-21,28.38a9.61,9.61,0,0,1-13.14,2Zm26.28,12.14a9.4,9.4,0,0,1-2.07-13l15.86-21.48a9.38,9.38,0,0,1,15,11.27c-.37.49-16.43,22-15.66,21.2A9.59,9.59,0,0,1,199.66,390.58ZM225,403.75a9.36,9.36,0,0,1-2.65-12l11.8-16a9.33,9.33,0,0,1,16,5,9.31,9.31,0,0,1-1.73,7l-10.34,14a9.58,9.58,0,0,1-13.13,2Zm41.94,0c-4.77,2.68-12.49,3.46-19.19,1.11l8.43-11.42a18.79,18.79,0,0,0,3.34-7.85l10.16,9.16a4.46,4.46,0,0,1,1.49,3.14c.15,2.79-2.22,4.72-4.23,5.86Zm96.46-247.07,50.86-21.5L475.14,289l-47.81,20.21L383.86,205.46,368.3,168.05l-.13,0ZM270,151.35l91.19,24.7,13.18,31.45,39.09,94-27.35,12.23L268.76,204.26l-32.71,7L225,234.73a16.89,16.89,0,0,1-31.76-10.89l9.49-42.68ZM208.6,168.06l-14.21,6.29-10.54,47.42a26.48,26.48,0,0,0,49.79,17.06l9.06-19.16,23.18-5,115.45,107.7a19.27,19.27,0,0,1,.56,3.56,18.28,18.28,0,0,1-30,15.05c-92.3-79.32-60.46-52-67.35-57.89l-6.29,7.24,60.67,53.32a14.75,14.75,0,0,1-.58,22.42,18.35,18.35,0,0,1-24,.47l-56.07-48.43L252,325.36l50.57,44.22a12,12,0,0,1-.38,18.11,18.36,18.36,0,0,1-24.14.63l-14-11.58.06-.06-16.55-14.41-1.48,1.7a19.11,19.11,0,0,0-5.13-.75c-.41,0-.8.12-1.21.14a18.92,18.92,0,0,0-7.58-16.8,18,18,0,0,0-13.3-3.47A18.93,18.93,0,0,0,188,327.79a18.76,18.76,0,0,0-6.18-8,19,19,0,0,0-26.54,4l-.73,1L98.83,285.56,139.36,163ZM36.73,279.54l51.92-157,48.67,16.1-51.93,157Z"/></g></g></svg>