<svg xmlns="http://www.w3.org/2000/svg" viewBox="0 0 512 512"><defs><style>.cls-1,.cls-3{fill:none;}.cls-2{fill:#00B0C2;}.cls-3{stroke:#00B0C2;stroke-linecap:round;stroke-linejoin:round;stroke-width:7px;}</style></defs><g id="Layer_2" data-name="Layer 2"><g id="Layer_2-2" data-name="Layer 2"><rect class="cls-1" width="512" height="512"/><polygon class="cls-2" points="398.61 234.96 406.05 234.96 414.5 234.96 414.5 204.96 398.61 195.78 383.68 187.16 382.9 186.72 348.93 167.11 283.37 204.96 283.37 280.68 299.26 289.83 314.85 298.85 348.93 318.53 414.5 280.68 414.5 250.67 398.61 250.67 382.9 250.67 382.9 262.44 348.93 282.04 314.96 262.44 314.96 223.21 348.93 203.59 382.9 223.21 382.9 234.96 398.61 234.96"/><path class="cls-3" d="M343.12,141.72v-68a37,37,0,0,0-37-37H127.46a37,37,0,0,0-37,37V439.19a37,37,0,0,0,37,37h178.7a37,37,0,0,0,37-37V342.32"/><path class="cls-3" d="M255,199.6V161.33a19.6,19.6,0,0,1,19.6-19.61H416.89a19.61,19.61,0,0,1,19.61,19.61V322.72a19.61,19.61,0,0,1-19.61,19.6H274.57a19.6,19.6,0,0,1-19.6-19.6V238"/><polyline class="cls-3" points="254.97 238.01 194.71 250.04 254.97 199.6"/><rect class="cls-3" x="132.9" y="137.82" width="64.96" height="64.96" rx="12.44"/><rect class="cls-3" x="132.9" y="285.78" width="64.96" height="64.96" rx="12.44"/><line class="cls-3" x1="90.5" y1="415.7" x2="343.12" y2="415.7"/><line class="cls-3" x1="90.5" y1="85.49" x2="343.12" y2="85.49"/><circle class="cls-3" cx="217.71" cy="445.47" r="13.53"/></g></g></svg>