<?xml version="1.0" encoding="UTF-8"?>
<svg width="64px" height="64px" viewBox="0 0 64 64" version="1.1" xmlns="http://www.w3.org/2000/svg" xmlns:xlink="http://www.w3.org/1999/xlink">
    <!-- Generator: Sketch 58 (84663) - https://sketch.com -->
    <title>icon_64x64/social_media</title>
    <desc>Created with Sketch.</desc>
    <g id="icon_64x64/social_media" stroke="none" stroke-width="1" fill="none" fill-rule="evenodd">
        <g id="icons8-facebook" transform="translate(8.000000, 13.000000)">
            <path d="M18,15.5 C18,16.881 16.881,18 15.5,18 L2.5,18 C1.1195,18 0,16.881 0,15.5 L0,2.5 C0,1.119 1.1195,0 2.5,0 L15.5,0 C16.881,0 18,1.119 18,2.5 L18,15.5 Z" id="Path" stroke="#FFFFFF" stroke-width="2" stroke-linecap="round" stroke-linejoin="round"></path>
            <path d="M14.184,9.5 L12.5,9.5 L12.5,18 L10,18 L10,9.5 L8.5,9.5 L8.5,7.5 L10,7.5 L10,6.295 C10.001,4.541 10.7295,3.5 12.796,3.5 L14.5,3.5 L14.5,5.5 L13.3565,5.5 C12.552,5.5 12.5,5.8 12.5,6.3615 L12.5,7.5 L14.5,7.5 L14.184,9.5 Z" id="Path" fill="#FFFFFF"></path>
        </g>
        <g id="icons8-twitter" transform="translate(34.000000, 13.000000)" stroke="#FFFFFF" stroke-linecap="round" stroke-linejoin="round" stroke-width="2">
            <path d="M23,2.196875 C22.1539718,2.56796875 21.2443036,2.8203125 20.2897135,2.93164015 C21.2630208,2.3527339 22.0117188,1.43613305 22.3636072,0.34511695 C21.453939,0.87949195 20.4431964,1.26914015 19.3688156,1.4806643 C18.5078125,0.5714839 17.2799479,-3.55271368e-13 15.9248052,-3.55271368e-13 C13.3193364,-3.55271368e-13 11.2042641,2.09667945 11.2042641,4.67949195 C11.2042641,5.046875 11.2454427,5.403125 11.3278,5.74453125 C7.40462288,5.5515625 3.92692033,3.6886714 1.60221354,0.8572268 C1.19417342,1.5474607 0.962076583,2.3527339 0.962076583,3.2099607 C0.962076583,4.83164015 1.79313175,6.2640625 3.06217496,7.1027339 C2.28727238,7.07675805 1.56103492,6.86894555 0.924642167,6.51640625 C0.924642167,6.5386714 0.924642167,6.5572268 0.924642167,6.57578125 C0.924642167,8.8431643 2.54931617,10.7357419 4.70931038,11.1625 C4.3125,11.2701169 3.89697242,11.3294919 3.46647183,11.3294919 C3.16324846,11.3294919 2.86376929,11.2998044 2.57926408,11.2441401 C3.17822242,13.1033205 4.92268904,14.4541018 6.98535204,14.4949214 C5.37190779,15.7492187 3.33544946,16.4951169 1.12679012,16.4951169 C0.744954667,16.4951169 0.370605708,16.4728518 0,16.4283205 C2.08886767,17.7568357 4.56705729,18.5324214 7.23242188,18.5324214 C15.9135745,18.5324214 20.6603193,11.4037107 20.6603193,5.2212893 C20.6603193,5.0208982 20.6528318,4.8167964 20.6453453,4.61640625 C21.5662432,3.9558589 22.3673505,3.13203125 23,2.196875 Z" id="Path"></path>
        </g>
        <g id="Group" transform="translate(24.000000, 39.000000)" stroke="#FFFFFF" stroke-linecap="round" stroke-linejoin="round">
            <rect id="Rectangle" stroke-width="2" x="0" y="0" width="16" height="16" rx="3"></rect>
            <circle id="Oval" cx="8" cy="8" r="3"></circle>
            <circle id="Oval" cx="12.5" cy="3.5" r="1"></circle>
        </g>
    </g>
</svg>