<svg xmlns="http://www.w3.org/2000/svg" viewBox="0 0 512 512"><defs><style>.cls-1{fill:none;}.cls-2{fill:#b7bfdd;}</style></defs><g id="Layer_2" data-name="Layer 2"><g id="Layer_2-2" data-name="Layer 2"><rect class="cls-1" width="512" height="512"/><path class="cls-2" d="M421.82,77.59H88.3a26.26,26.26,0,0,0-26.24,26.24V409A26.26,26.26,0,0,0,88.3,435.25H421.82A26.26,26.26,0,0,0,448.06,409V103.83A26.26,26.26,0,0,0,421.82,77.59ZM68.09,103.83A20.2,20.2,0,0,1,88.3,83.63H421.82A20.2,20.2,0,0,1,442,103.83V137H68.09ZM442,409a20.21,20.21,0,0,1-20.21,20.21H88.3A20.21,20.21,0,0,1,68.09,409V143H442Z"/><path class="cls-2" d="M100.36,96.89a13.57,13.57,0,1,0,13.57,13.57A13.71,13.71,0,0,0,100.36,96.89Zm0,21.11a7.54,7.54,0,1,1,7.54-7.54A7.66,7.66,0,0,1,100.36,118Z"/><path class="cls-2" d="M137.75,96.89a13.57,13.57,0,1,0,13.57,13.57A13.52,13.52,0,0,0,137.75,96.89Zm0,21.11a7.54,7.54,0,1,1,7.54-7.54A7.46,7.46,0,0,1,137.75,118Z"/><path class="cls-2" d="M175.45,96.89A13.57,13.57,0,1,0,189,110.46,13.52,13.52,0,0,0,175.45,96.89Zm0,21.11a7.54,7.54,0,1,1,7.54-7.54A7.46,7.46,0,0,1,175.45,118Z"/><path class="cls-2" d="M325,292.31a5.29,5.29,0,0,0-6.64,3.31,67.14,67.14,0,0,1-84.43,42.83,66.29,66.29,0,0,1-37.7-31.07l18.7,8.15a5.27,5.27,0,0,0,4.22-9.65l-31.06-13.27a5.36,5.36,0,0,0-7.24,3.92l-5.43,31.36a5.21,5.21,0,0,0,10.26,1.81l2.71-14.78c22,36.49,69.66,48.25,106.45,26.24a76.34,76.34,0,0,0,33.47-42.22,5.28,5.28,0,0,0-3.31-6.63Z"/><path class="cls-2" d="M330.69,214.81a5.4,5.4,0,0,0-6.34,4.22L321,235.31c-21.72-36.79-69.36-48.85-106.15-27.14a78,78,0,0,0-34.08,42.52,5.48,5.48,0,0,0,3.62,6.64,5,5,0,0,0,6.33-3.32,67,67,0,0,1,121.83-12.37L293.9,233.2a5.5,5.5,0,0,0-7.24,2.41,5.08,5.08,0,0,0,2.71,7.24L321,257c3,1.51,6.63-.6,7.23-3.92l6.34-32.26c.9-2.72-.91-5.43-3.92-6Z"/></g></g></svg>