<svg xmlns="http://www.w3.org/2000/svg" viewBox="0 0 512 512"><defs><style>.cls-1{fill:none;}.cls-2{fill:#b7bfdd;}</style></defs><g id="Layer_2" data-name="Layer 2"><g id="Layer_2-2" data-name="Layer 2"><rect class="cls-1" width="512" height="512"/><path class="cls-2" d="M422.82,77.59H89.3a26.26,26.26,0,0,0-26.24,26.24V409A26.26,26.26,0,0,0,89.3,435.25H422.82A26.26,26.26,0,0,0,449.06,409V103.83A26.26,26.26,0,0,0,422.82,77.59ZM69.09,103.83A20.2,20.2,0,0,1,89.3,83.63H422.82A20.2,20.2,0,0,1,443,103.83V137H69.09ZM443,409a20.21,20.21,0,0,1-20.21,20.21H89.3A20.21,20.21,0,0,1,69.09,409V143H443Z"/><path class="cls-2" d="M101.36,96.89a13.57,13.57,0,1,0,13.57,13.57A13.71,13.71,0,0,0,101.36,96.89Zm0,21.11a7.54,7.54,0,1,1,7.54-7.54A7.66,7.66,0,0,1,101.36,118Z"/><path class="cls-2" d="M138.75,96.89a13.57,13.57,0,1,0,13.57,13.57A13.52,13.52,0,0,0,138.75,96.89Zm0,21.11a7.54,7.54,0,1,1,7.54-7.54A7.46,7.46,0,0,1,138.75,118Z"/><path class="cls-2" d="M176.45,96.89A13.57,13.57,0,1,0,190,110.46,13.52,13.52,0,0,0,176.45,96.89Zm0,21.11a7.54,7.54,0,1,1,7.54-7.54A7.46,7.46,0,0,1,176.45,118Z"/><path class="cls-2" d="M209.9,325.16a7.06,7.06,0,0,1-4.6-1.69l-45.93-39.11a7.09,7.09,0,0,1,0-10.81l45.93-39.12a7.1,7.1,0,1,1,9.2,10.81L174.92,279l39.58,33.71a7.09,7.09,0,0,1-4.6,12.5Z"/><path class="cls-2" d="M300.57,325.16a7.1,7.1,0,0,1-4.6-12.5L335.55,279,296,245.24a7.1,7.1,0,0,1,9.2-10.81l45.93,39.12a7.09,7.09,0,0,1,0,10.81l-45.93,39.11A7.06,7.06,0,0,1,300.57,325.16Z"/><path class="cls-2" d="M239,354.5a7.48,7.48,0,0,1-1.47-.15,7.1,7.1,0,0,1-5.48-8.41L260.65,210a7.1,7.1,0,1,1,13.89,2.92L245.91,348.86A7.09,7.09,0,0,1,239,354.5Z"/></g></g></svg>